<mxfile host="app.diagrams.net" modified="2021-04-20T08:37:03.993Z" agent="5.0 (Macintosh; Intel Mac OS X 11_2_3) AppleWebKit/537.36 (KHTML, like Gecko) Chrome/89.0.4389.128 Safari/537.36" etag="8vNsTIFtOkD5A2CNZ5uJ" version="14.6.1" type="github">
  <diagram id="QVj4KSkfM7rAbZDsEdx_" name="Page-1">
    <mxGraphModel dx="2475" dy="1037" grid="1" gridSize="10" guides="1" tooltips="1" connect="1" arrows="1" fold="1" page="1" pageScale="1" pageWidth="827" pageHeight="1169" math="0" shadow="0">
      <root>
        <mxCell id="0" />
        <mxCell id="1" parent="0" />
        <mxCell id="ooAiBl3-JKffqHeqVd0w-3" value="" style="rounded=0;orthogonalLoop=1;jettySize=auto;html=1;" edge="1" parent="1" source="ooAiBl3-JKffqHeqVd0w-1" target="ooAiBl3-JKffqHeqVd0w-2">
          <mxGeometry relative="1" as="geometry" />
        </mxCell>
        <mxCell id="ooAiBl3-JKffqHeqVd0w-1" value="&lt;span style=&quot;color: rgba(0 , 0 , 0 , 0.65) ; font-size: 14px ; background-color: rgb(255 , 255 , 255)&quot;&gt;openapi&lt;/span&gt;" style="ellipse;whiteSpace=wrap;html=1;aspect=fixed;" vertex="1" parent="1">
          <mxGeometry x="230" y="290" width="80" height="80" as="geometry" />
        </mxCell>
        <mxCell id="ooAiBl3-JKffqHeqVd0w-5" value="" style="rounded=0;orthogonalLoop=1;jettySize=auto;html=1;" edge="1" parent="1" source="ooAiBl3-JKffqHeqVd0w-2" target="ooAiBl3-JKffqHeqVd0w-4">
          <mxGeometry relative="1" as="geometry" />
        </mxCell>
        <mxCell id="ooAiBl3-JKffqHeqVd0w-2" value="&lt;span style=&quot;color: rgba(0 , 0 , 0 , 0.65) ; font-family: , , &amp;#34;segoe ui&amp;#34; , &amp;#34;pingfang sc&amp;#34; , &amp;#34;hiragino sans gb&amp;#34; , &amp;#34;microsoft yahei&amp;#34; , &amp;#34;helvetica neue&amp;#34; , &amp;#34;helvetica&amp;#34; , &amp;#34;arial&amp;#34; , sans-serif , &amp;#34;apple color emoji&amp;#34; , &amp;#34;segoe ui emoji&amp;#34; , &amp;#34;segoe ui symbol&amp;#34; ; font-size: 14px ; background-color: rgb(255 , 255 , 255)&quot;&gt;securitycore:asyncPredictio&lt;/span&gt;" style="ellipse;whiteSpace=wrap;html=1;aspect=fixed;" vertex="1" parent="1">
          <mxGeometry x="240" y="470" width="80" height="80" as="geometry" />
        </mxCell>
        <mxCell id="ooAiBl3-JKffqHeqVd0w-7" value="" style="rounded=0;orthogonalLoop=1;jettySize=auto;html=1;" edge="1" parent="1" source="ooAiBl3-JKffqHeqVd0w-4" target="ooAiBl3-JKffqHeqVd0w-6">
          <mxGeometry relative="1" as="geometry" />
        </mxCell>
        <mxCell id="ooAiBl3-JKffqHeqVd0w-4" value="&lt;span style=&quot;color: rgba(0 , 0 , 0 , 0.65) ; font-family: , , &amp;#34;segoe ui&amp;#34; , &amp;#34;pingfang sc&amp;#34; , &amp;#34;hiragino sans gb&amp;#34; , &amp;#34;microsoft yahei&amp;#34; , &amp;#34;helvetica neue&amp;#34; , &amp;#34;helvetica&amp;#34; , &amp;#34;arial&amp;#34; , sans-serif , &amp;#34;apple color emoji&amp;#34; , &amp;#34;segoe ui emoji&amp;#34; , &amp;#34;segoe ui symbol&amp;#34; ; font-size: 14px ; background-color: rgb(255 , 255 , 255)&quot;&gt;unitradeprodutc:invoke&lt;/span&gt;" style="ellipse;whiteSpace=wrap;html=1;aspect=fixed;" vertex="1" parent="1">
          <mxGeometry x="70" y="610" width="80" height="80" as="geometry" />
        </mxCell>
        <mxCell id="ooAiBl3-JKffqHeqVd0w-15" value="" style="rounded=0;orthogonalLoop=1;jettySize=auto;html=1;" edge="1" parent="1" source="ooAiBl3-JKffqHeqVd0w-6" target="ooAiBl3-JKffqHeqVd0w-14">
          <mxGeometry relative="1" as="geometry" />
        </mxCell>
        <mxCell id="ooAiBl3-JKffqHeqVd0w-6" value="cif" style="ellipse;whiteSpace=wrap;html=1;aspect=fixed;fillColor=#FFCCCC;" vertex="1" parent="1">
          <mxGeometry x="230" y="760" width="80" height="80" as="geometry" />
        </mxCell>
        <mxCell id="ooAiBl3-JKffqHeqVd0w-14" value="&lt;span style=&quot;color: rgba(0 , 0 , 0 , 0.65) ; font-family: , , &amp;#34;segoe ui&amp;#34; , &amp;#34;pingfang sc&amp;#34; , &amp;#34;hiragino sans gb&amp;#34; , &amp;#34;microsoft yahei&amp;#34; , &amp;#34;helvetica neue&amp;#34; , &amp;#34;helvetica&amp;#34; , &amp;#34;arial&amp;#34; , sans-serif , &amp;#34;apple color emoji&amp;#34; , &amp;#34;segoe ui emoji&amp;#34; , &amp;#34;segoe ui symbol&amp;#34; ; font-size: 14px ; background-color: rgb(255 , 255 , 255)&quot;&gt;customerTairCache&lt;/span&gt;" style="ellipse;whiteSpace=wrap;html=1;aspect=fixed;" vertex="1" parent="1">
          <mxGeometry x="230" y="920" width="80" height="80" as="geometry" />
        </mxCell>
        <mxCell id="ooAiBl3-JKffqHeqVd0w-19" value="" style="rounded=0;orthogonalLoop=1;jettySize=auto;html=1;" edge="1" parent="1" source="ooAiBl3-JKffqHeqVd0w-16" target="ooAiBl3-JKffqHeqVd0w-18">
          <mxGeometry relative="1" as="geometry" />
        </mxCell>
        <mxCell id="ooAiBl3-JKffqHeqVd0w-27" value="" style="rounded=0;orthogonalLoop=1;jettySize=auto;html=1;" edge="1" parent="1" source="ooAiBl3-JKffqHeqVd0w-16" target="ooAiBl3-JKffqHeqVd0w-6">
          <mxGeometry relative="1" as="geometry" />
        </mxCell>
        <mxCell id="ooAiBl3-JKffqHeqVd0w-16" value="&lt;span style=&quot;color: rgba(0 , 0 , 0 , 0.65) ; font-family: , , &amp;#34;segoe ui&amp;#34; , &amp;#34;pingfang sc&amp;#34; , &amp;#34;hiragino sans gb&amp;#34; , &amp;#34;microsoft yahei&amp;#34; , &amp;#34;helvetica neue&amp;#34; , &amp;#34;helvetica&amp;#34; , &amp;#34;arial&amp;#34; , sans-serif , &amp;#34;apple color emoji&amp;#34; , &amp;#34;segoe ui emoji&amp;#34; , &amp;#34;segoe ui symbol&amp;#34; ; font-size: 14px ; background-color: rgb(255 , 255 , 255)&quot;&gt;mobileanti:safecheck&lt;/span&gt;" style="ellipse;whiteSpace=wrap;html=1;aspect=fixed;fillColor=#FFCCCC;" vertex="1" parent="1">
          <mxGeometry x="500" y="760" width="80" height="80" as="geometry" />
        </mxCell>
        <mxCell id="ooAiBl3-JKffqHeqVd0w-18" value="&lt;span style=&quot;color: rgba(0 , 0 , 0 , 0.65) ; font-family: , , &amp;#34;segoe ui&amp;#34; , &amp;#34;pingfang sc&amp;#34; , &amp;#34;hiragino sans gb&amp;#34; , &amp;#34;microsoft yahei&amp;#34; , &amp;#34;helvetica neue&amp;#34; , &amp;#34;helvetica&amp;#34; , &amp;#34;arial&amp;#34; , sans-serif , &amp;#34;apple color emoji&amp;#34; , &amp;#34;segoe ui emoji&amp;#34; , &amp;#34;segoe ui symbol&amp;#34; ; font-size: 14px ; background-color: rgb(255 , 255 , 255)&quot;&gt;mobilecodec:decodeBarCode&lt;/span&gt;" style="ellipse;whiteSpace=wrap;html=1;aspect=fixed;" vertex="1" parent="1">
          <mxGeometry x="510" y="920" width="80" height="80" as="geometry" />
        </mxCell>
        <mxCell id="ooAiBl3-JKffqHeqVd0w-26" value="" style="rounded=0;orthogonalLoop=1;jettySize=auto;html=1;" edge="1" parent="1" source="ooAiBl3-JKffqHeqVd0w-24" target="ooAiBl3-JKffqHeqVd0w-4">
          <mxGeometry relative="1" as="geometry" />
        </mxCell>
        <mxCell id="ooAiBl3-JKffqHeqVd0w-24" value="变更实体&lt;br&gt;Drm" style="ellipse;whiteSpace=wrap;html=1;aspect=fixed;" vertex="1" parent="1">
          <mxGeometry x="-120" y="530" width="80" height="80" as="geometry" />
        </mxCell>
        <mxCell id="ooAiBl3-JKffqHeqVd0w-28" value="" style="rounded=0;orthogonalLoop=1;jettySize=auto;html=1;fillColor=#FFCCCC;" edge="1" parent="1" source="ooAiBl3-JKffqHeqVd0w-29" target="ooAiBl3-JKffqHeqVd0w-31">
          <mxGeometry relative="1" as="geometry" />
        </mxCell>
        <mxCell id="ooAiBl3-JKffqHeqVd0w-29" value="&lt;span style=&quot;color: rgba(0 , 0 , 0 , 0.65) ; font-family: , , &amp;#34;segoe ui&amp;#34; , &amp;#34;pingfang sc&amp;#34; , &amp;#34;hiragino sans gb&amp;#34; , &amp;#34;microsoft yahei&amp;#34; , &amp;#34;helvetica neue&amp;#34; , &amp;#34;helvetica&amp;#34; , &amp;#34;arial&amp;#34; , sans-serif , &amp;#34;apple color emoji&amp;#34; , &amp;#34;segoe ui emoji&amp;#34; , &amp;#34;segoe ui symbol&amp;#34; ; font-size: 14px ; background-color: rgb(255 , 255 , 255)&quot;&gt;openapi&lt;/span&gt;&lt;span style=&quot;font-size: 12pt&quot;&gt;&lt;br&gt;&lt;/span&gt;" style="ellipse;whiteSpace=wrap;html=1;aspect=fixed;fillColor=#FFCCCC;" vertex="1" parent="1">
          <mxGeometry x="390" y="290" width="80" height="80" as="geometry" />
        </mxCell>
        <mxCell id="ooAiBl3-JKffqHeqVd0w-30" value="" style="rounded=0;orthogonalLoop=1;jettySize=auto;html=1;fillColor=#FFCCCC;" edge="1" parent="1" source="ooAiBl3-JKffqHeqVd0w-31" target="ooAiBl3-JKffqHeqVd0w-32">
          <mxGeometry relative="1" as="geometry" />
        </mxCell>
        <mxCell id="ooAiBl3-JKffqHeqVd0w-31" value="&lt;span style=&quot;color: rgba(0 , 0 , 0 , 0.65) ; font-size: 14px ; background-color: rgb(255 , 255 , 255)&quot;&gt;openapiopc&lt;/span&gt;" style="ellipse;whiteSpace=wrap;html=1;aspect=fixed;fillColor=#FFCCCC;" vertex="1" parent="1">
          <mxGeometry x="390" y="440" width="80" height="80" as="geometry" />
        </mxCell>
        <mxCell id="ooAiBl3-JKffqHeqVd0w-33" value="" style="rounded=0;orthogonalLoop=1;jettySize=auto;html=1;fillColor=#FFCCCC;" edge="1" parent="1" source="ooAiBl3-JKffqHeqVd0w-32" target="ooAiBl3-JKffqHeqVd0w-16">
          <mxGeometry relative="1" as="geometry" />
        </mxCell>
        <mxCell id="ooAiBl3-JKffqHeqVd0w-32" value="&lt;span style=&quot;color: rgba(0 , 0 , 0 , 0.65) ; font-family: , , &amp;#34;segoe ui&amp;#34; , &amp;#34;pingfang sc&amp;#34; , &amp;#34;hiragino sans gb&amp;#34; , &amp;#34;microsoft yahei&amp;#34; , &amp;#34;helvetica neue&amp;#34; , &amp;#34;helvetica&amp;#34; , &amp;#34;arial&amp;#34; , sans-serif , &amp;#34;apple color emoji&amp;#34; , &amp;#34;segoe ui emoji&amp;#34; , &amp;#34;segoe ui symbol&amp;#34; ; font-size: 14px ; background-color: rgb(255 , 255 , 255)&quot;&gt;mif:queryDecisions&lt;/span&gt;" style="ellipse;whiteSpace=wrap;html=1;aspect=fixed;fillColor=#FFCCCC;" vertex="1" parent="1">
          <mxGeometry x="414" y="600" width="80" height="80" as="geometry" />
        </mxCell>
        <mxCell id="ooAiBl3-JKffqHeqVd0w-34" value="" style="rounded=0;orthogonalLoop=1;jettySize=auto;html=1;" edge="1" parent="1" source="ooAiBl3-JKffqHeqVd0w-35" target="ooAiBl3-JKffqHeqVd0w-37">
          <mxGeometry relative="1" as="geometry" />
        </mxCell>
        <mxCell id="ooAiBl3-JKffqHeqVd0w-35" value="&lt;span style=&quot;color: rgba(0 , 0 , 0 , 0.65) ; font-size: 14px ; background-color: rgb(255 , 255 , 255)&quot;&gt;openapi&lt;/span&gt;" style="ellipse;whiteSpace=wrap;html=1;aspect=fixed;" vertex="1" parent="1">
          <mxGeometry x="660" y="290" width="80" height="80" as="geometry" />
        </mxCell>
        <mxCell id="ooAiBl3-JKffqHeqVd0w-36" value="" style="rounded=0;orthogonalLoop=1;jettySize=auto;html=1;" edge="1" parent="1" source="ooAiBl3-JKffqHeqVd0w-37" target="ooAiBl3-JKffqHeqVd0w-38">
          <mxGeometry relative="1" as="geometry" />
        </mxCell>
        <mxCell id="ooAiBl3-JKffqHeqVd0w-37" value="&lt;span style=&quot;color: rgba(0 , 0 , 0 , 0.65) ; font-family: , , &amp;#34;segoe ui&amp;#34; , &amp;#34;pingfang sc&amp;#34; , &amp;#34;hiragino sans gb&amp;#34; , &amp;#34;microsoft yahei&amp;#34; , &amp;#34;helvetica neue&amp;#34; , &amp;#34;helvetica&amp;#34; , &amp;#34;arial&amp;#34; , sans-serif , &amp;#34;apple color emoji&amp;#34; , &amp;#34;segoe ui emoji&amp;#34; , &amp;#34;segoe ui symbol&amp;#34; ; font-size: 14px ; background-color: rgb(255 , 255 , 255)&quot;&gt;cif:findUserInfo&lt;/span&gt;" style="ellipse;whiteSpace=wrap;html=1;aspect=fixed;fillColor=#FFCCCC;" vertex="1" parent="1">
          <mxGeometry x="620" y="440" width="80" height="80" as="geometry" />
        </mxCell>
        <mxCell id="ooAiBl3-JKffqHeqVd0w-39" style="rounded=0;orthogonalLoop=1;jettySize=auto;html=1;exitX=0.5;exitY=1;exitDx=0;exitDy=0;entryX=1;entryY=0.5;entryDx=0;entryDy=0;" edge="1" parent="1" source="ooAiBl3-JKffqHeqVd0w-38" target="ooAiBl3-JKffqHeqVd0w-16">
          <mxGeometry relative="1" as="geometry" />
        </mxCell>
        <mxCell id="ooAiBl3-JKffqHeqVd0w-38" value="&lt;span style=&quot;color: rgba(0 , 0 , 0 , 0.65) ; font-family: , , &amp;#34;segoe ui&amp;#34; , &amp;#34;pingfang sc&amp;#34; , &amp;#34;hiragino sans gb&amp;#34; , &amp;#34;microsoft yahei&amp;#34; , &amp;#34;helvetica neue&amp;#34; , &amp;#34;helvetica&amp;#34; , &amp;#34;arial&amp;#34; , sans-serif , &amp;#34;apple color emoji&amp;#34; , &amp;#34;segoe ui emoji&amp;#34; , &amp;#34;segoe ui symbol&amp;#34; ; font-size: 14px ; background-color: rgb(255 , 255 , 255)&quot;&gt;tradecore:create&lt;/span&gt;" style="ellipse;whiteSpace=wrap;html=1;aspect=fixed;" vertex="1" parent="1">
          <mxGeometry x="600" y="595" width="80" height="80" as="geometry" />
        </mxCell>
        <mxCell id="ooAiBl3-JKffqHeqVd0w-40" value="" style="rounded=0;orthogonalLoop=1;jettySize=auto;html=1;" edge="1" parent="1" source="ooAiBl3-JKffqHeqVd0w-41" target="ooAiBl3-JKffqHeqVd0w-43">
          <mxGeometry relative="1" as="geometry" />
        </mxCell>
        <mxCell id="ooAiBl3-JKffqHeqVd0w-41" value="&lt;span style=&quot;color: rgba(0 , 0 , 0 , 0.65) ; font-size: 14px ; background-color: rgb(255 , 255 , 255)&quot;&gt;openapi&lt;/span&gt;" style="ellipse;whiteSpace=wrap;html=1;aspect=fixed;fillColor=#FFCCCC;" vertex="1" parent="1">
          <mxGeometry x="30" y="285" width="80" height="80" as="geometry" />
        </mxCell>
        <mxCell id="ooAiBl3-JKffqHeqVd0w-45" style="rounded=0;orthogonalLoop=1;jettySize=auto;html=1;exitX=1;exitY=0.5;exitDx=0;exitDy=0;entryX=0;entryY=0.5;entryDx=0;entryDy=0;" edge="1" parent="1" source="ooAiBl3-JKffqHeqVd0w-43" target="ooAiBl3-JKffqHeqVd0w-2">
          <mxGeometry relative="1" as="geometry" />
        </mxCell>
        <mxCell id="ooAiBl3-JKffqHeqVd0w-43" value="&lt;span style=&quot;color: rgba(0 , 0 , 0 , 0.65) ; font-family: , , &amp;#34;segoe ui&amp;#34; , &amp;#34;pingfang sc&amp;#34; , &amp;#34;hiragino sans gb&amp;#34; , &amp;#34;microsoft yahei&amp;#34; , &amp;#34;helvetica neue&amp;#34; , &amp;#34;helvetica&amp;#34; , &amp;#34;arial&amp;#34; , sans-serif , &amp;#34;apple color emoji&amp;#34; , &amp;#34;segoe ui emoji&amp;#34; , &amp;#34;segoe ui symbol&amp;#34; ; font-size: 14px ; background-color: rgb(255 , 255 , 255)&quot;&gt;mobilecodec:decodeBarCode&lt;/span&gt;" style="ellipse;whiteSpace=wrap;html=1;aspect=fixed;" vertex="1" parent="1">
          <mxGeometry x="70" y="390" width="80" height="80" as="geometry" />
        </mxCell>
        <mxCell id="ooAiBl3-JKffqHeqVd0w-46" value="GM00000010" style="text;whiteSpace=wrap;html=1;" vertex="1" parent="1">
          <mxGeometry x="390" y="255" width="120" height="30" as="geometry" />
        </mxCell>
        <mxCell id="ooAiBl3-JKffqHeqVd0w-49" value="GM00000013" style="text;whiteSpace=wrap;html=1;" vertex="1" parent="1">
          <mxGeometry x="230" y="255" width="120" height="30" as="geometry" />
        </mxCell>
        <mxCell id="ooAiBl3-JKffqHeqVd0w-50" value="GM00000011" style="text;whiteSpace=wrap;html=1;" vertex="1" parent="1">
          <mxGeometry x="660" y="255" width="120" height="30" as="geometry" />
        </mxCell>
        <mxCell id="ooAiBl3-JKffqHeqVd0w-51" value="GM00000015" style="text;whiteSpace=wrap;html=1;" vertex="1" parent="1">
          <mxGeometry x="80" y="255" width="120" height="30" as="geometry" />
        </mxCell>
        <mxCell id="ooAiBl3-JKffqHeqVd0w-69" value="异常指标" style="swimlane;fontStyle=0;childLayout=stackLayout;horizontal=1;startSize=26;horizontalStack=0;resizeParent=1;resizeParentMax=0;resizeLast=0;collapsible=1;marginBottom=0;align=center;fontSize=14;fillColor=#FFCCCC;" vertex="1" parent="1">
          <mxGeometry x="310" y="740" width="70" height="116" as="geometry" />
        </mxCell>
        <mxCell id="ooAiBl3-JKffqHeqVd0w-70" value="CPU异常" style="text;strokeColor=none;fillColor=none;spacingLeft=4;spacingRight=4;overflow=hidden;rotatable=0;points=[[0,0.5],[1,0.5]];portConstraint=eastwest;fontSize=12;" vertex="1" parent="ooAiBl3-JKffqHeqVd0w-69">
          <mxGeometry y="26" width="70" height="30" as="geometry" />
        </mxCell>
        <mxCell id="ooAiBl3-JKffqHeqVd0w-71" value="RT异常" style="text;strokeColor=none;fillColor=none;spacingLeft=4;spacingRight=4;overflow=hidden;rotatable=0;points=[[0,0.5],[1,0.5]];portConstraint=eastwest;fontSize=12;" vertex="1" parent="ooAiBl3-JKffqHeqVd0w-69">
          <mxGeometry y="56" width="70" height="30" as="geometry" />
        </mxCell>
        <mxCell id="ooAiBl3-JKffqHeqVd0w-72" value="流量异常" style="text;strokeColor=none;fillColor=none;spacingLeft=4;spacingRight=4;overflow=hidden;rotatable=0;points=[[0,0.5],[1,0.5]];portConstraint=eastwest;fontSize=12;" vertex="1" parent="ooAiBl3-JKffqHeqVd0w-69">
          <mxGeometry y="86" width="70" height="30" as="geometry" />
        </mxCell>
        <mxCell id="ooAiBl3-JKffqHeqVd0w-73" value="异常指标" style="swimlane;fontStyle=0;childLayout=stackLayout;horizontal=1;startSize=26;horizontalStack=0;resizeParent=1;resizeParentMax=0;resizeLast=0;collapsible=1;marginBottom=0;align=center;fontSize=14;fillColor=#FFCCCC;" vertex="1" parent="1">
          <mxGeometry x="590" y="740" width="70" height="86" as="geometry" />
        </mxCell>
        <mxCell id="ooAiBl3-JKffqHeqVd0w-74" value="CPU异常" style="text;strokeColor=none;fillColor=none;spacingLeft=4;spacingRight=4;overflow=hidden;rotatable=0;points=[[0,0.5],[1,0.5]];portConstraint=eastwest;fontSize=12;" vertex="1" parent="ooAiBl3-JKffqHeqVd0w-73">
          <mxGeometry y="26" width="70" height="30" as="geometry" />
        </mxCell>
        <mxCell id="ooAiBl3-JKffqHeqVd0w-75" value="RT异常" style="text;strokeColor=none;fillColor=none;spacingLeft=4;spacingRight=4;overflow=hidden;rotatable=0;points=[[0,0.5],[1,0.5]];portConstraint=eastwest;fontSize=12;" vertex="1" parent="ooAiBl3-JKffqHeqVd0w-73">
          <mxGeometry y="56" width="70" height="30" as="geometry" />
        </mxCell>
        <mxCell id="ooAiBl3-JKffqHeqVd0w-77" value="异常指标" style="swimlane;fontStyle=0;childLayout=stackLayout;horizontal=1;startSize=26;horizontalStack=0;resizeParent=1;resizeParentMax=0;resizeLast=0;collapsible=1;marginBottom=0;align=center;fontSize=14;fillColor=#FFCCCC;" vertex="1" parent="1">
          <mxGeometry x="494" y="574" width="70" height="116" as="geometry" />
        </mxCell>
        <mxCell id="ooAiBl3-JKffqHeqVd0w-78" value="CPU异常" style="text;strokeColor=none;fillColor=none;spacingLeft=4;spacingRight=4;overflow=hidden;rotatable=0;points=[[0,0.5],[1,0.5]];portConstraint=eastwest;fontSize=12;" vertex="1" parent="ooAiBl3-JKffqHeqVd0w-77">
          <mxGeometry y="26" width="70" height="30" as="geometry" />
        </mxCell>
        <mxCell id="ooAiBl3-JKffqHeqVd0w-79" value="RT异常" style="text;strokeColor=none;fillColor=none;spacingLeft=4;spacingRight=4;overflow=hidden;rotatable=0;points=[[0,0.5],[1,0.5]];portConstraint=eastwest;fontSize=12;" vertex="1" parent="ooAiBl3-JKffqHeqVd0w-77">
          <mxGeometry y="56" width="70" height="30" as="geometry" />
        </mxCell>
        <mxCell id="ooAiBl3-JKffqHeqVd0w-80" value="流量异常" style="text;strokeColor=none;fillColor=none;spacingLeft=4;spacingRight=4;overflow=hidden;rotatable=0;points=[[0,0.5],[1,0.5]];portConstraint=eastwest;fontSize=12;" vertex="1" parent="ooAiBl3-JKffqHeqVd0w-77">
          <mxGeometry y="86" width="70" height="30" as="geometry" />
        </mxCell>
        <mxCell id="ooAiBl3-JKffqHeqVd0w-81" value="异常指标" style="swimlane;fontStyle=0;childLayout=stackLayout;horizontal=1;startSize=26;horizontalStack=0;resizeParent=1;resizeParentMax=0;resizeLast=0;collapsible=1;marginBottom=0;align=center;fontSize=14;fillColor=#FFCCCC;" vertex="1" parent="1">
          <mxGeometry x="470" y="422" width="70" height="116" as="geometry" />
        </mxCell>
        <mxCell id="ooAiBl3-JKffqHeqVd0w-82" value="CPU异常" style="text;strokeColor=none;fillColor=none;spacingLeft=4;spacingRight=4;overflow=hidden;rotatable=0;points=[[0,0.5],[1,0.5]];portConstraint=eastwest;fontSize=12;" vertex="1" parent="ooAiBl3-JKffqHeqVd0w-81">
          <mxGeometry y="26" width="70" height="30" as="geometry" />
        </mxCell>
        <mxCell id="ooAiBl3-JKffqHeqVd0w-83" value="RT异常" style="text;strokeColor=none;fillColor=none;spacingLeft=4;spacingRight=4;overflow=hidden;rotatable=0;points=[[0,0.5],[1,0.5]];portConstraint=eastwest;fontSize=12;" vertex="1" parent="ooAiBl3-JKffqHeqVd0w-81">
          <mxGeometry y="56" width="70" height="30" as="geometry" />
        </mxCell>
        <mxCell id="ooAiBl3-JKffqHeqVd0w-84" value="流量异常" style="text;strokeColor=none;fillColor=none;spacingLeft=4;spacingRight=4;overflow=hidden;rotatable=0;points=[[0,0.5],[1,0.5]];portConstraint=eastwest;fontSize=12;" vertex="1" parent="ooAiBl3-JKffqHeqVd0w-81">
          <mxGeometry y="86" width="70" height="30" as="geometry" />
        </mxCell>
      </root>
    </mxGraphModel>
  </diagram>
</mxfile>
